# xmcd CD database file
#
# Track frame offsets:
#	150
#	16060
#	30527
#	47270
#	62420
#	76757
#	92865
#	108455
#	123940
#	139242
#	153630
#	168130
#	181827
#	196152
#	207900
#	222140
#	235475
#	247295
#	258650
#	270685
#
# Disc length: 3787 seconds
#
# Revision: 3
# Processed by: cddbd v1.5.1PL0 Copyright (c) Steve Scherf et al.
# Submitted via: CDex 1.51
#
DISCID=0f0ec914
DTITLE=Louis Armstrong - Satchmo's Classic Vocals
DYEAR=1992
DGENRE=General Jazz
TTITLE0=When You're Smiling
TTITLE1=I'm A Ding Dong Daddy
TTITLE2=If I Could Be With You, One Hour Tonight
TTITLE3=Body And Soul
TTITLE4=You're Driving Me Crazy
TTITLE5=The Peanut Vendor
TTITLE6=When It's Sleepy Time Down South
TTITLE7=Shine
TTITLE8=Just A Gigolo
TTITLE9=Walkin' My Baby Back Home
TTITLE10=I Surrender Dear
TTITLE11=Hobo,You Can't Ride This Train
TTITLE12=Public Melody Number One
TTITLE13=Alexander's Ragtime Band
TTITLE14=Once In A While
TTITLE15=On The Sunny Side Of The Street
TTITLE16=It's Wonderful
TTITLE17=Love Walked In
TTITLE18=Jeepers Creepers
TTITLE19=Save It , Pretty Mama
EXTD=more info YEAR: 1992
EXTT0=
EXTT1=
EXTT2=
EXTT3=
EXTT4=
EXTT5=
EXTT6=
EXTT7=
EXTT8=
EXTT9=
EXTT10=
EXTT11=
EXTT12=
EXTT13=
EXTT14=
EXTT15=
EXTT16=
EXTT17=
EXTT18=
EXTT19=
PLAYORDER=
